<svg version="1.1" id="Layer_1" xmlns="http://www.w3.org/2000/svg" xmlns:xlink="http://www.w3.org/1999/xlink" 
	 viewBox="0 0 512 512" xml:space="preserve">
<path style="fill:#F7931E;" d="M41.747,68.875v424.256h428.505V68.875l-50.007-50.007H91.754L41.747,68.875z M157.052,93.554
	h276.016V379.66H157.052V93.554z"/>
<g>
	<rect x="10.199" y="285.068" style="fill:#B3B3B3;" width="31.618" height="166.247"/>
	<rect x="470.183" y="285.068" style="fill:#B3B3B3;" width="31.618" height="166.247"/>
</g>
<g>
	<rect x="157.058" y="232.032" style="fill:#00A99D;" width="276.011" height="63.765"/>
	<rect x="157.058" y="93.812" style="fill:#00A99D;" width="276.011" height="28.066"/>
</g>
<g>
	<rect x="212.133" y="295.797" style="fill:#B3B3B3;" width="39.529" height="84.123"/>
	<rect x="338.461" y="295.797" style="fill:#B3B3B3;" width="39.529" height="84.123"/>
	<circle style="fill:#B3B3B3;" cx="294.757" cy="263.649" r="31.618"/>
</g>
<g>
	<circle style="fill:#00A99D;" cx="99.952" cy="149.418" r="25.498"/>
	<circle style="fill:#00A99D;" cx="99.952" cy="234.072" r="25.498"/>
</g>
<path d="M501.801,274.869h-21.349V68.875c0-2.705-1.075-5.298-2.987-7.212l-50.007-50.007c-1.912-1.912-4.507-2.987-7.212-2.987
	H91.754c-2.705,0-5.3,1.075-7.212,2.987L34.536,61.663c-1.912,1.913-2.987,4.507-2.987,7.212v205.993H10.199
	C4.566,274.869,0,279.436,0,285.068v166.247c0,5.632,4.566,10.199,10.199,10.199h21.349v31.618c0,5.632,4.566,10.199,10.199,10.199
	h428.506c5.633,0,10.199-4.567,10.199-10.199v-31.618h21.348c5.633,0,10.199-4.567,10.199-10.199V285.068
	C512,279.436,507.434,274.869,501.801,274.869z M20.398,441.116V295.267h11.15v145.849H20.398z M460.053,482.932H51.947V73.101
	l44.032-44.033h320.043l44.032,44.033V482.932z M491.602,441.116h-11.15V295.267h11.15V441.116z"/>
<path d="M443.268,93.814c0-0.003,0-0.006,0-0.01v-0.25c0-5.632-4.566-10.199-10.199-10.199H157.052
	c-5.633,0-10.199,4.567-10.199,10.199V379.66c0,5.632,4.566,10.199,10.199,10.199h276.016c5.633,0,10.199-4.567,10.199-10.199
	V93.814z M167.252,132.08h255.618v89.753H167.252V132.08z M367.794,369.461h-19.131v-63.468h19.131V369.461z M294.757,242.231
	c11.811,0,21.418,9.609,21.418,21.418c0,11.81-9.608,21.418-21.418,21.418s-21.418-9.609-21.418-21.418
	C273.339,251.84,282.946,242.231,294.757,242.231z M328.265,305.994v63.468h-66.407v-63.468H328.265z M330.332,285.596
	c3.953-6.384,6.242-13.902,6.242-21.947c0-7.824-2.164-15.149-5.92-21.418h92.215v43.365H330.332z M167.253,104.014h255.617v7.668
	H167.253V104.014z M167.253,285.596v-43.365h91.607c-3.754,6.269-5.92,13.595-5.92,21.418c0,8.045,2.289,15.562,6.242,21.947
	H167.253z M241.459,305.994v63.468h-19.131v-63.468H241.459z M388.193,369.461v-63.468h34.676v63.468H388.193z M167.252,305.994
	h34.678v63.468h-34.678L167.252,305.994L167.252,305.994z"/>
<path d="M99.952,185.116c19.683,0,35.697-16.014,35.697-35.697s-16.014-35.697-35.697-35.697s-35.697,16.014-35.697,35.697
	S80.269,185.116,99.952,185.116z M99.952,134.12c8.436,0,15.299,6.863,15.299,15.299s-6.863,15.299-15.299,15.299
	s-15.299-6.863-15.299-15.299S91.516,134.12,99.952,134.12z"/>
<path d="M135.649,234.072c0-19.683-16.014-35.697-35.697-35.697s-35.697,16.014-35.697,35.697s16.014,35.697,35.697,35.697
	S135.649,253.755,135.649,234.072z M99.952,249.371c-8.436,0-15.299-6.863-15.299-15.299s6.863-15.299,15.299-15.299
	s15.299,6.863,15.299,15.299S108.388,249.371,99.952,249.371z"/>
<path d="M129.53,451.315h-11.219c-5.633,0-10.199,4.567-10.199,10.199c0,5.632,4.566,10.199,10.199,10.199h11.219
	c5.633,0,10.199-4.567,10.199-10.199C139.729,455.882,135.163,451.315,129.53,451.315z"/>
<path d="M433.466,451.315h-261.1c-5.633,0-10.199,4.567-10.199,10.199c0,5.632,4.566,10.199,10.199,10.199h261.1
	c5.633,0,10.199-4.567,10.199-10.199C443.665,455.882,439.099,451.315,433.466,451.315z"/>
</svg>