<svg id="Layer_1" enable-background="new 0 0 512 512" viewBox="0 0 512 512" xmlns="http://www.w3.org/2000/svg"><g><path d="m186.821 253.239s36.749-45.522 53.07-57.113 23.883 2.087 39.573 2.015c6.91-.032 34.397-18.298 34.407-39.235-16.695-12.033-34.638-13.137-34.579-31.407.077-23.981-17.951-30.696-40.035-35.489-40.733-8.841-68.684 59.86-100.257 77.082 0-.001 6.338 58.778 47.821 84.147z" fill="#918291"/><g fill="#7a6d79"><path d="m279.291 127.498c.077-23.981-17.951-30.696-40.035-35.489-7.438-1.614-14.448-.635-21.134 2.136 17.842 4.841 31.235 12.679 31.168 33.353-.059 18.27 17.884 19.374 34.579 31.407-.007 14.294-12.818 27.338-23.147 34.189 5.619 1.988 11.255 5.08 18.74 5.046 6.91-.032 34.397-18.298 34.407-39.235-16.694-12.033-34.637-13.137-34.578-31.407z"/><path d="m209.891 196.125c-10.255 7.283-28.574 27.962-40.776 42.328 5.042 5.556 10.898 10.622 17.706 14.786 0 0 36.179-44.814 52.684-56.832-9.781-3.243-17.141-9.14-29.614-.282z"/></g><path d="m239.256 92.009s-45.948-39.054-90.169-32.568c-3.861.566-4.642 5.833-1.129 7.534 16.014 7.757 46.262 25.088 62.058 51.473 0 0 27.473 12.071 29.24-26.439z" fill="#c68d7a"/><path d="m504.5 146.306c0 75.4-40.99 114.56-75.37 134.14-36.31 20.66-72.38 23.84-73.89 23.96-.45.04-.9.06-1.33.06-8.25 0-15.24-6.33-15.93-14.69-.73-8.8 5.8-16.51 14.59-17.26.31-.02 31.41-2.91 61.62-20.39 38.69-22.41 58.31-58.01 58.31-105.82 0-33.03-9.43-58.15-28.02-74.67-25.113-22.309-61.542-24.7-78.824-24.43-4.443.069-8.794 1.095-12.892 2.813-5.299 2.221-11.572 3.507-18.294 3.507-19.04 0-34.47-10.31-34.47-23.02s15.43-23.02 34.47-23.02c8.137 0 15.612 1.883 21.503 5.024 3.238 1.727 6.82 2.688 10.489 2.653 22.499-.217 66.45 3.537 99.078 32.383 25.85 22.86 38.96 56.08 38.96 98.76z" fill="#6ed5a1"/><path d="m279.463 361.597s7.179 55.284 40.615 62.888c23.996 5.457 27.959 27.83 12.923 48.118-33.538 6.036-36.202 31.879-30.462 31.879h38.689c20.901 0 57.926-78.558 48.388-84.724s-51.069-17.328-38.769-48.838v-23.094z" fill="#fea713"/><path d="m152.208 383.69 22.974 80.049c0 21.99-21.996 40.737-26.256 40.737h-36.211c-17.045 0 2.98-29.228 23.79-30.666.923-36.66-34.403-90.12-34.403-90.12s-14.963-37.57-8.512-67.308c-.001.001 57.955 16.134 58.618 67.308z" fill="#fea713"/><path d="m87.751 310.012s17.57 37.817 74.24 79.165c0 0 38.672 47.973 37.749 84.632-20.809 1.439-40.835 30.666-23.79 30.666h36.211c4.26 0 26.256-18.746 26.256-40.737l-21.646-75.419c-.616-2.147 1.136-4.232 3.357-3.989 11.428 1.251 41.914 2.723 70.802-12.046 15.592-7.974 35.257-10.009 43.294-10.522 2.057-.131 3.876 1.301 4.245 3.329 2.234 12.268 11.714 52.948 40.051 59.392 24 5.46 27.96 27.833 12.92 48.121-33.54 6.031-36.2 31.88-30.46 31.88h38.69c20.9 0 57.93-78.559 48.39-84.731-9.54-6.162-51.07-17.323-38.77-48.833 10.68-27.332 21.66-47.64 15.88-73.69-8.13-36.67-45.38-59.282-92.11-56.307-46.73 2.976-123.94-3.567-125.97-3.567 0 0-40.571-21.064-48.571-28.462-8-7.399-27.385-44.084-51.692-42.85-24.308 1.233-39.385 5.449-52 20.554-12.615 15.106-26.769 37.402-46.769 46.958-4 22.196 14.528 46.733 21.846 48.091 16.615 3.083 26.154-6.782 41.231 8.632 15.078 15.417 16.616 19.733 16.616 19.733z" fill="#fec165"/><g><path d="m448.061 419.701c-9.54-6.16-51.07-17.318-38.77-48.818 10.68-27.324 21.66-47.626 15.88-73.667-8.13-36.658-45.38-59.264-92.11-56.29-2.838.181-5.79.326-8.829.44 36.507 4.007 64.082 24.929 70.939 55.85 5.78 26.041-5.2 46.344-15.88 73.667-12.3 31.5 34.938 49.055 44.478 55.215 9.54 6.17-17.231 81.172-54.098 78.308h30c20.9 0 57.93-78.535 48.39-84.705z" fill="#fdb441"/></g><path d="m36.777 342.278c17.231 0 36.103-10.687 50.974-32.266 13.324-8.9 122.264-17.88 122.264-103.982 0-10.409-27.1-25.718-30.469-35.565-14.769-43.159-51.016-44.062-90.682-36.11-8.872 1.779-17.846 4.974-24.145 11.481s-9.178 16.976-4.836 24.929c5.594 10.245 19.646 12.121 27.985 20.281 9.629 9.423 9.41 25.771 2.749 37.491-6.661 11.719-61.785 44.124-64.197 49.349-12.169 26.363 3.453 64.392 10.357 64.392z" fill="#fe9738"/><path d="m179.546 170.466c-12.611-36.852-40.883-42.893-73.57-38.922 19.364 3.178 35.045 14.011 43.57 38.922 3.37 9.847 30.469 25.156 30.469 35.565 0 86.101-108.94 95.082-122.264 103.982-8.196 11.892-17.607 20.469-27.288 25.779 2.269 4.054 4.569 6.487 6.313 6.487 17.231 0 36.103-10.687 50.974-32.266 13.324-8.9 122.264-17.88 122.264-103.982.002-10.41-27.098-25.719-30.468-35.565z" fill="#fe860a"/><g><path d="m512 146.306c0-44.913-13.96-80.031-41.491-104.379-34.333-30.354-79.983-34.51-104.116-34.264-2.308.039-4.673-.59-6.887-1.771-22.646-12.872-62.513-3.966-66.621 20.474-7.734 1.101-17.208 2.907-25.359 5.796-3.904 1.384-5.947 5.671-4.563 9.575 1.379 3.943 5.774 5.941 9.575 4.564 7.072-2.507 15.544-4.105 22.529-5.094 8.542 18.25 40.205 24.859 60.601 15.73 3.409-1.429 6.81-2.179 10.109-2.231 14.244-.227 41.423 1.429 63.511 14.991 3.525 2.165 8.146 1.062 10.315-2.468 2.167-3.53 1.062-8.148-2.468-10.315-25.325-15.548-55.727-17.448-71.593-17.206-5.22.082-10.492 1.224-15.672 3.395-4.566 1.914-9.89 2.925-15.396 2.925-15.893 0-26.969-8.179-26.969-15.52.928-14.485 30.22-19.947 44.943-11.377 4.426 2.358 9.283 3.579 14.089 3.534 21.973-.221 63.458 3.469 94.035 30.502 24.173 21.374 36.428 52.711 36.428 93.139 0 71.787-38.926 109.025-71.578 127.622-.374.213-.761.421-1.139.633-2.897-4.96-6.385-9.532-10.37-13.701 1.365-.735 2.717-1.479 4.038-2.243 41.174-23.849 62.05-61.635 62.05-112.31 0-25.013-5.236-46.052-15.562-62.534-2.2-3.511-6.827-4.573-10.338-2.374-3.51 2.199-4.572 6.827-2.373 10.337 8.807 14.058 13.273 32.418 13.273 54.57 0 44.938-18.36 78.357-54.565 99.329-2.847 1.647-5.827 3.222-8.884 4.707-17.911-12.343-41.932-18.619-68.962-16.899-25.934 1.651-65.157.647-116.609-2.983 16.118-18.174 24.263-25.38 28.26-28.218 6.937-4.927 10.462-3.527 17.481-.739 4.681 1.859 10.49 4.151 17.782 4.139 6.923-.032 17.74-7.167 24.861-13.784 10.965-10.187 17.005-21.887 17.011-32.948.001-2.412-1.158-4.678-3.115-6.088-5.561-4.008-11.141-6.851-16.064-9.358-11.657-5.938-15.423-8.484-15.399-15.94.102-31.679-27.752-38.852-44.17-42.455-8.605-6.918-51.639-39.355-94.62-33.046-5.001.733-8.88 4.592-9.65 9.602-.773 5.027 1.774 9.891 6.341 12.102 11.689 5.662 30.5 16.226 45.414 31.413-7.685 7.566-14.947 16.323-22.002 24.856-1.368 1.655-2.762 3.339-4.155 5.01-21.401-15.728-50.828-13.159-76.552-8.002-12.422 2.49-21.6 6.944-28.06 13.618-9.205 9.509-11.685 23.384-6.03 33.74.34.622.706 1.211 1.083 1.786-1.824 1.724-3.588 3.586-5.311 5.648-2.666 3.193-5.328 6.606-8.146 10.219-10.215 13.098-21.792 27.943-36.099 34.779-2.177 1.04-3.72 3.063-4.147 5.437-3.564 19.781 7.368 39.549 16.387 49.25-6.622 21.924.394 48.025 8.116 60.096 1.299 2.029 5.249 8.204 11.595 8.204 16.868 0 33.776-8.548 47.865-23.849-1.689 28.564 9.962 58.223 10.49 59.55.189.475.428.931.709 1.358.057.085 5.702 8.668 12.268 21.034 1.952 3.695 6.555 5.031 10.141 3.107 3.658-1.942 5.049-6.483 3.106-10.141-5.898-11.109-11.002-19.178-12.537-21.556-1.279-3.416-7.087-19.694-8.84-37.692 10.086 12.447 24.745 27.892 45.335 44.297l22.344 77.856c-.601 15.696-15.295 29.777-19.822 32.248h-33.215c2.794-5.315 12.264-14.983 22.396-15.684 3.859-.267 6.883-3.426 6.98-7.293.277-11.024-2.354-24.264-7.82-39.352-1.411-3.893-5.713-5.909-9.606-4.496-3.894 1.411-5.908 5.712-4.497 9.606 3.827 10.562 6.085 19.911 6.742 27.89-16.233 4.794-30.403 20.967-30.013 32.265.207 6.005 4.588 12.064 13.908 12.064h36.21c4.404 0 9.625-3.831 13.718-7.625 1.495 4.673 5.793 8.612 13.306 8.612h36.21c8.228 0 19.313-13.372 20.55-14.897 6.095-7.54 14.502-21.249 12.915-35.408l-19.903-69.35c11.863.7 31.358.325 51.931-6.431 20.316 57.936 47.054 36.966 55.683 57.047 2.349 6.341.561 14.758-4.769 22.913-26.37 5.944-36.879 24.285-35.842 35.904.627 7.027 5.525 10.228 9.811 10.228h38.688c3.811 0 7.806-1.418 11.97-4.23 1.963 2.873 4.998 4.234 7.782 4.234h38.688c9.951 0 21.194-9.683 33.418-28.78 8.681-14.011 34.583-59.811 19.04-69.75-2.141-1.382-4.979-2.696-8.574-4.36-22.054-10.208-33.588-19.28-27.28-35.442 1.497-3.83 3.012-7.552 4.477-11.151 9.232-22.674 17.206-42.256 11.739-66.893-.555-2.504-1.232-4.948-2.021-7.33.795-.437 1.592-.874 2.37-1.317 36.111-20.57 79.157-61.667 79.157-140.661zm-349.145-80c30.189 1.549 59.492 22.113 68.641 29.112-.848 8.139-3.178 13.602-6.814 15.902-3.23 2.043-7.344 1.472-9.715.868-13.562-21.149-35.367-36.448-52.112-45.882zm36.973 50.301c1.329 1.848 2.593 3.742 3.761 5.693.799 1.334 1.993 2.388 3.418 3.014 5.333 2.566 17.603 4.193 25.524-1.211 6.945-4.311 11.385-11.974 13.272-22.819 47.333 12.535 5.178 35.83 49.585 55.544 3.486 1.776 7.061 3.598 10.58 5.799-2.99 13.954-21.516 27.018-26.741 28.014-4.285-.028-8.018-1.511-11.967-3.08-20.027-9.345-32.16.505-49.743 19.052.309-9.582-8.91-17.492-18.741-26.17-4.483-3.934-11.258-9.879-12.124-12.405-3.133-9.156-7.174-16.578-11.904-22.562 1.654-1.978 3.306-3.968 4.924-5.924 6.55-7.923 13.281-16.063 20.156-22.945zm-184.767 121.766c15.588-8.778 27.29-23.782 37.704-37.135 2.739-3.512 5.326-6.829 7.831-9.829 1.625-1.945 3.278-3.649 4.993-5.184 2.128 1.264 4.293 2.377 6.372 3.446 4.102 2.108 7.977 4.1 10.673 6.737 7.358 7.201 6.251 20.019 1.474 28.425-3.042 5.354-26.423 21.251-38.983 29.792-9.846 6.695-15.815 10.816-19.536 13.735-5.728-7.452-11.057-19.258-10.528-29.987zm23.569 96.358c-4.973-5.996-14.208-33.392-5.718-52.964 2.52-2.415 12.528-9.219 20.645-14.738 23.453-15.947 39.157-26.983 43.591-34.785 7.735-13.609 8.837-33.972-4.023-46.557-4.315-4.223-9.624-6.951-14.308-9.358-5.473-2.812-10.201-5.241-12.339-9.157-2.803-5.131-.215-12.134 3.642-16.119 4.274-4.416 10.891-7.472 20.231-9.344 48.106-9.644 71.13-.902 82.109 31.185 2.159 6.308 8.768 12.107 16.421 18.823 4.556 3.998 13.014 11.419 13.643 14.417-.071 63.312-64.592 81.177-99.265 90.777-9.652 2.672-16.029 4.438-19.663 6.865-.789.527-1.471 1.2-2.01 1.981-12.215 17.726-27.773 28.187-42.956 28.974zm143.769 125.953-14.387-50.132c9.723 14.931 22.176 37.437 24.021 57.104-3.641 1.079-7.175 2.733-10.467 4.773.714-3.665 1.602-7.86.833-11.745zm158.835 36.298h-32.831c1.932-5.05 8.252-13.815 25.932-16.998 1.88-.338 3.56-1.381 4.697-2.916 9.725-13.122 12.779-27.461 8.38-39.341-3.839-10.364-12.953-17.665-25.665-20.556-16.434-3.738-25.586-23.013-30.125-36.863.911-.435 1.822-.881 2.731-1.346 12.713-6.501 28.715-8.73 37.338-9.485 3.341 16.103 14.553 55.357 45.171 62.32 1.578.359 3.29.87 4.989 1.581-3.333 11.215-10.652 26.962-18.572 39.737-12.141 19.58-20.029 23.867-22.045 23.867zm45.781-31.131c-.971.219-1.914.459-2.842.711 3.284-6.389 6.224-12.866 8.579-18.901.354 5.514-1.641 11.928-5.737 18.19zm19.849-109.006c-1.485 3.647-3.02 7.419-4.557 11.351-11.242 28.27 13.084 45.286 34.95 54.512 1.803.834 3.541 1.639 4.888 2.322-.361 9.375-14.012 42.318-30.099 61.785-6.648 8.045-11.001 10.171-12.373 10.171h-32.833c1.93-5.051 8.249-13.819 25.931-16.999 1.88-.338 3.56-1.381 4.698-2.916 9.727-13.122 12.783-27.461 8.385-39.342-3.838-10.365-12.953-17.666-25.666-20.559-24.43-5.556-32.887-45.476-34.334-53.421-1.05-5.771-6.259-9.84-12.1-9.471-8.271.527-29.332 2.686-46.23 11.329-26.978 13.793-55.541 12.475-66.571 11.268-7.26-1.007-13.612 6.523-11.381 13.513l21.335 74.339c-.602 15.698-15.296 29.778-19.823 32.248h-33.214c2.793-5.315 12.264-14.983 22.396-15.684 3.859-.267 6.883-3.426 6.98-7.293.98-38.964-37.758-87.482-39.407-89.528-.411-.511-.889-.965-1.418-1.352-40.265-29.379-60.254-56.985-67.888-69.273 2.676-.802 5.79-1.665 8.728-2.479 33.21-8.059 85.548-27.799 101.992-66.351.523.038 1.115.081 1.79.129 54.029 3.903 95.243 5.003 122.5 3.267 43.134-2.738 77.012 17.526 84.308 50.446 4.453 20.068-2.36 36.802-10.987 57.988z"/><path d="m331.159 19.423c-9.916.307-9.909 14.696 0 15h6.563c9.916-.307 9.909-14.696 0-15z"/><path d="m249.828 148.862c3.345 2.373 8.048 1.608 10.453-1.798 2.39-3.383 1.585-8.063-1.799-10.453-2.532-1.789-4.478-5.595-4.965-6.797-1.519-3.837-5.854-5.729-9.702-4.225-3.858 1.507-5.764 5.856-4.258 9.714.35.892 3.595 8.842 10.271 13.559z"/><path d="m59.91 228.719c.142 0 .284-.004.428-.012.955-.054 9.52-.665 16.079-5.543 3.324-2.472 4.015-7.17 1.543-10.494-2.474-3.324-7.17-4.015-10.494-1.542-2.488 1.85-6.711 2.516-8.004 2.604-4.119.25-7.264 3.783-7.033 7.907.225 3.993 3.532 7.08 7.481 7.08z"/></g></g></svg>
